<?xml version="1.0" encoding="UTF-8"?>
<svg width="1200pt" height="1200pt" version="1.1" fill="black" viewBox="0 0 1200 1200" xmlns="http://www.w3.org/2000/svg">
 <path d="m744.12 264c0 26.508-21.492 48-48 48-26.512 0-48-21.492-48-48s21.488-48 48-48c26.508 0 48 21.492 48 48"/>
 <path d="m552.12 936c0 26.508-21.492 48-48 48-26.512 0-48-21.492-48-48s21.488-48 48-48c26.508 0 48 21.492 48 48"/>
 <path d="m748.56 795.36 164.52-164.52c26.656-25.723 43.289-60.094 46.922-96.961 3.2422-40.965-10.477-81.465-37.953-112.03-27.473-30.559-66.289-48.5-107.37-49.621-41.078-1.1211-80.816 14.672-109.91 43.691l-264 264c-7.0117 7.2734-15.902 12.465-25.684 15-18.371 4.5508-37.781-0.85156-51.168-14.234-13.383-13.383-18.781-32.797-14.23-51.168 2.4922-9.7695 7.6445-18.656 14.879-25.68l128.52-129.12c25.215-24.504 41.41-56.812 45.961-91.68 5.2344-44.57-9.7617-89.141-40.871-121.48s-75.066-49.055-119.81-45.555c-35.891 3.3516-69.492 19.09-95.039 44.52l-27.359 27.48c-9.1875 8.7148-14.707 20.598-15.445 33.238-0.73438 12.637 3.3711 25.082 11.484 34.801 8.7969 9.793 21.23 15.547 34.387 15.91 13.16 0.36328 25.891-4.6953 35.215-13.988l29.52-29.52c9.957-10.75 23.867-16.98 38.516-17.254 14.652-0.27344 28.785 5.4297 39.137 15.801 10.355 10.371 16.039 24.512 15.742 39.16-0.29688 14.652-6.5508 28.551-17.316 38.492l-132 132c-28.039 28.18-43.734 66.348-43.633 106.1 0.10156 39.754 15.992 77.84 44.172 105.88 28.184 28.039 66.348 43.734 106.11 43.633 39.754-0.10156 77.836-15.992 105.88-44.176l264-264c10.578-11.051 25.355-17.086 40.648-16.598 15.293 0.48828 29.652 7.457 39.504 19.164 9.8516 11.703 14.262 27.047 12.129 42.195-1.8711 12.453-7.8242 23.934-16.922 32.641l-164.28 163.8c-25.148 24.492-41.297 56.75-45.84 91.559-5.2812 44.613 9.7148 89.242 40.855 121.62 31.145 32.375 75.16 49.09 119.95 45.543 35.887-3.3594 69.484-19.098 95.039-44.52l2.0391-2.0391 25.199-25.441c9.1875-8.7148 14.707-20.598 15.445-33.238 0.73438-12.637-3.3711-25.082-11.484-34.801-8.8008-9.832-21.258-15.609-34.445-15.973-13.191-0.36328-25.949 4.7188-35.273 14.051l-29.402 29.402c-7.0117 7.2734-15.898 12.465-25.68 15-18.371 4.5508-37.785-0.85156-51.168-14.234-13.383-13.383-18.781-32.797-14.23-51.168 2.4648-9.7539 7.5703-18.641 14.758-25.68z"/>
</svg>
